<?xml version="1.0" standalone="no"?>
<!DOCTYPE svg PUBLIC "-//W3C//DTD SVG 20010904//EN"
 "http://www.w3.org/TR/2001/REC-SVG-20010904/DTD/svg10.dtd">
<svg version="1.0" xmlns="http://www.w3.org/2000/svg"
 width="260.000000pt" height="260.000000pt" viewBox="0 0 260.000000 260.000000"
 preserveAspectRatio="xMidYMid meet">
<metadata>
Created by potrace 1.14, written by Peter Selinger 2001-2017
</metadata>
<g transform="translate(0.000000,260.000000) scale(0.100000,-0.100000)"
fill="#000000" stroke="none">
<path d="M190 1335 l0 -995 1160 0 1160 0 0 995 0 995 -1160 0 -1160 0 0 -995z
m2270 0 l0 -945 -1110 0 -1110 0 0 945 0 945 1110 0 1110 0 0 -945z"/>
<path d="M970 1825 l0 -125 25 0 c24 0 25 3 25 55 l0 55 45 0 45 0 0 -55 c0
-52 1 -55 25 -55 l25 0 0 125 0 125 -25 0 c-23 0 -25 -3 -25 -50 l0 -50 -45 0
-45 0 0 50 c0 47 -2 50 -25 50 l-25 0 0 -125z"/>
<path d="M1275 1938 c-2 -7 -20 -58 -40 -113 -41 -117 -42 -125 -14 -125 13 0
23 10 30 30 10 28 15 30 59 30 44 0 49 -2 59 -30 7 -23 16 -30 35 -30 15 0 26
3 25 8 0 4 -19 59 -42 122 -41 112 -43 115 -75 118 -20 2 -34 -2 -37 -10z m53
-87 c16 -52 16 -51 -18 -51 -16 0 -30 3 -30 6 0 17 24 84 30 84 4 0 12 -17 18
-39z"/>
<path d="M1460 1825 l0 -125 54 0 c99 0 140 29 151 107 12 92 -41 143 -147
143 l-58 0 0 -125z m130 65 c14 -14 20 -33 20 -65 0 -54 -25 -85 -70 -85 l-30
0 0 85 0 85 30 0 c17 0 39 -9 50 -20z"/>
<path d="M970 1335 l0 -125 25 0 c24 0 25 3 25 55 l0 55 45 0 45 0 0 -55 c0
-52 1 -55 25 -55 l25 0 0 125 0 125 -25 0 c-23 0 -25 -3 -25 -50 l0 -50 -45 0
-45 0 0 50 c0 47 -2 50 -25 50 l-25 0 0 -125z"/>
<path d="M1275 1448 c-2 -7 -20 -58 -40 -113 -41 -117 -42 -125 -14 -125 13 0
23 10 30 30 10 28 15 30 59 30 44 0 49 -2 59 -30 7 -23 16 -30 35 -30 15 0 26
3 25 8 0 4 -19 59 -42 122 -41 112 -43 115 -75 118 -20 2 -34 -2 -37 -10z m53
-87 c16 -52 16 -51 -18 -51 -16 0 -30 3 -30 6 0 17 24 84 30 84 4 0 12 -17 18
-39z"/>
<path d="M1460 1335 l0 -125 54 0 c99 0 140 29 151 107 12 92 -41 143 -147
143 l-58 0 0 -125z m130 65 c14 -14 20 -33 20 -65 0 -54 -25 -85 -70 -85 l-30
0 0 85 0 85 30 0 c17 0 39 -9 50 -20z"/>
<path d="M970 845 l0 -125 25 0 c24 0 25 3 25 55 l0 55 45 0 45 0 0 -55 c0
-52 1 -55 25 -55 l25 0 0 125 0 125 -25 0 c-23 0 -25 -3 -25 -50 l0 -50 -45 0
-45 0 0 50 c0 47 -2 50 -25 50 l-25 0 0 -125z"/>
<path d="M1275 958 c-2 -7 -20 -58 -40 -113 -41 -117 -42 -125 -14 -125 13 0
23 10 30 30 10 28 15 30 59 30 44 0 49 -2 59 -30 7 -23 16 -30 35 -30 15 0 26
3 25 8 0 4 -19 59 -42 122 -41 112 -43 115 -75 118 -20 2 -34 -2 -37 -10z m53
-87 c16 -52 16 -51 -18 -51 -16 0 -30 3 -30 6 0 17 24 84 30 84 4 0 12 -17 18
-39z"/>
<path d="M1460 845 l0 -125 54 0 c99 0 140 29 151 107 12 92 -41 143 -147 143
l-58 0 0 -125z m130 65 c14 -14 20 -33 20 -65 0 -54 -25 -85 -70 -85 l-30 0 0
85 0 85 30 0 c17 0 39 -9 50 -20z"/>
</g>
</svg>
